# xmcd
#
# Track frame offsets:
#	150
#	19133
#	34768
#	50186
#	72714
#	88906
#	110787
#	120964
#	143559
#	158808
#	177211
#	194282
#	210131
#	230413
#
# Disc length: 3312 seconds
# Revision: 0
# Processed by: cddbd v1.5.2PL0 Copyright (c) Steve Scherf et al.
# Submitted via: dBpowerAMP V12.0
#
DISCID=c20cee0e
DTITLE=Tim O'Brien and Darrell Scott - Memories and Moments
DYEAR=2013
DGENRE=Country
TTITLE0=Time to Talk to Joseph
TTITLE1=It All Comes Down to Love
TTITLE2=Keep Your Dirty Lights On
TTITLE3=Brother Wind
TTITLE4=Memories and Moments
TTITLE5=Paradise
TTITLE6=Just One More
TTITLE7=Fiddler Jones
TTITLE8=The Well
TTITLE9=Alone and Forsaken
TTITLE10=You Don't Own Me
TTITLE11=Angel's Blue Eyes
TTITLE12=Free Again
TTITLE13=On Life's Other Side
EXTD=
EXTT0=
EXTT1=
EXTT2=
EXTT3=
EXTT4=
EXTT5=
EXTT6=
EXTT7=
EXTT8=
EXTT9=
EXTT10=
EXTT11=
EXTT12=
EXTT13=
PLAYORDER=
